<?xml version="1.0" encoding="UTF-8"?>
<svg width="278px" height="417px" viewBox="0 0 278 417" version="1.1" xmlns="http://www.w3.org/2000/svg" xmlns:xlink="http://www.w3.org/1999/xlink">
    <title>LOGO UNITO_VERTICALE_COLORE</title>
    <defs>
        <polygon id="path-1" points="0 -2.84217094e-14 35.908 -2.84217094e-14 35.908 39.805 0 39.805"/>
        <polygon id="path-3" points="0 2.84217094e-14 277.714 2.84217094e-14 277.714 92.575 0 92.575"/>
    </defs>
    <g id="Page-1" stroke="none" stroke-width="1" fill="none" fill-rule="evenodd">
        <g id="LOGO-UNITO_VERTICALE_COLORE">
            <g id="Group-3" transform="translate(0.000000, 376.596000)">
                <mask id="mask-2" fill="white">
                    <use xlink:href="#path-1"/>
                </mask>
                <g id="Clip-2"/>
                <path d="M22.219,31.178 C24.133,30.032 25.644,28.465 26.754,26.477 C27.863,24.489 28.418,22.302 28.418,19.916 C28.418,17.53 27.863,15.344 26.754,13.356 C25.644,11.368 24.133,9.796 22.219,8.64 C20.304,7.484 18.191,6.906 15.88,6.906 L7.447,6.906 L7.447,32.898 L15.88,32.898 C18.191,32.898 20.304,32.325 22.219,31.178 Z M-0.042,-2.84217094e-14 L15.88,-2.84217094e-14 C19.56,-2.84217094e-14 22.93,0.883 25.991,2.649 C29.051,4.415 31.47,6.819 33.245,9.861 C35.02,12.903 35.908,16.255 35.908,19.916 C35.908,23.578 35.02,26.93 33.245,29.971 C31.47,33.014 29.051,35.413 25.991,37.17 C22.93,38.927 19.56,39.805 15.88,39.805 L-0.042,39.805 L-0.042,-2.84217094e-14 L-0.042,-2.84217094e-14 Z" id="Fill-1" fill="#464B4C" mask="url(#mask-2)"/>
            </g>
            <polygon id="Fill-4" fill="#464B4C" points="40.706 416.401 48.196 416.401 48.196 376.623 40.706 376.623"/>
            <polyline id="Fill-5" fill="#D8223A" points="72.808 376.596 103.515 376.596 103.515 383.752 91.92 383.752 91.92 416.401 84.431 416.401 84.431 383.752 72.808 383.752 72.808 376.596"/>
            <path d="M111.684,403.184 C112.84,405.19 114.417,406.771 116.414,407.927 C118.411,409.082 120.62,409.661 123.043,409.661 C125.484,409.661 127.703,409.082 129.701,407.927 C131.698,406.771 133.269,405.19 134.416,403.184 C135.563,401.177 136.136,398.953 136.136,396.512 C136.136,394.053 135.563,391.82 134.416,389.813 C133.269,387.807 131.698,386.226 129.701,385.07 C127.703,383.914 125.484,383.336 123.043,383.336 C120.62,383.336 118.411,383.914 116.414,385.07 C114.417,386.226 112.84,387.812 111.684,389.827 C110.528,391.843 109.95,394.071 109.95,396.512 C109.95,398.953 110.528,401.177 111.684,403.184 Z M105.166,386.124 C106.968,383.008 109.437,380.553 112.572,378.759 C115.706,376.966 119.188,376.069 123.015,376.069 C126.844,376.069 130.329,376.966 133.473,378.759 C136.617,380.553 139.094,383.008 140.907,386.124 C142.719,389.24 143.625,392.703 143.625,396.512 C143.625,400.303 142.719,403.757 140.907,406.873 C139.094,409.989 136.617,412.444 133.473,414.237 C130.329,416.031 126.844,416.928 123.015,416.928 C119.188,416.928 115.706,416.031 112.572,414.237 C109.437,412.444 106.968,409.989 105.166,406.873 C103.362,403.757 102.461,400.303 102.461,396.512 C102.461,392.703 103.362,389.24 105.166,386.124 L105.166,386.124 Z" id="Fill-6" fill="#D8223A"/>
            <path d="M155.831,394.349 L162.932,394.349 C163.967,394.349 164.91,394.117 165.761,393.655 C166.611,393.193 167.286,392.56 167.786,391.755 C168.285,390.95 168.535,390.058 168.535,389.078 C168.535,388.062 168.285,387.155 167.786,386.36 C167.286,385.565 166.607,384.945 165.747,384.501 C164.887,384.057 163.93,383.836 162.876,383.836 L155.831,383.836 L155.831,394.349 Z M148.341,416.401 L148.341,376.596 L163.236,376.596 C165.622,376.596 167.786,377.127 169.727,378.19 C171.669,379.254 173.204,380.738 174.332,382.642 C175.46,384.548 176.024,386.692 176.024,389.078 C176.024,391.038 175.548,392.818 174.596,394.418 C173.643,396.017 172.441,397.275 170.989,398.19 C169.538,399.105 168.109,399.573 166.704,399.591 L165.816,399.619 L165.816,399.674 C166.833,399.749 167.675,399.965 168.341,400.326 C169.007,400.687 169.57,401.21 170.033,401.893 L180.379,416.401 L174.194,416.401 C173.306,416.401 172.52,416.239 171.836,415.915 C171.151,415.592 170.522,414.986 169.949,414.099 L161.018,401.588 L155.831,401.588 L155.831,416.401 L148.341,416.401 L148.341,416.401 Z" id="Fill-7" fill="#464B4C"/>
            <polygon id="Fill-8" fill="#464B4C" points="183.07 416.401 190.56 416.401 190.56 376.623 183.07 376.623"/>
            <path d="M231.835,376.596 L231.835,416.401 L226.232,416.401 C225.27,416.401 224.409,415.846 223.651,414.737 L204.65,386.803 L204.511,386.803 C205.122,388.32 205.427,389.938 205.427,391.658 L205.399,416.401 L197.937,416.401 L197.937,376.596 L203.873,376.596 C204.761,376.596 205.496,376.766 206.079,377.109 C206.661,377.451 207.248,378.048 207.841,378.898 L225.344,404.667 L225.455,404.667 C224.733,403.003 224.373,401.293 224.373,399.536 L224.4,376.596 L231.835,376.596" id="Fill-9" fill="#464B4C"/>
            <g id="Group-13" transform="translate(0.000000, 324.353000)">
                <mask id="mask-4" fill="white">
                    <use xlink:href="#path-3"/>
                </mask>
                <g id="Clip-11"/>
                <path d="M245.773,78.831 C246.928,80.837 248.505,82.418 250.503,83.574 C252.5,84.729 254.709,85.308 257.132,85.308 C259.573,85.308 261.792,84.729 263.789,83.574 C265.786,82.418 267.358,80.837 268.505,78.831 C269.652,76.824 270.225,74.6 270.225,72.159 C270.225,69.7 269.652,67.467 268.505,65.46 C267.358,63.454 265.786,61.873 263.789,60.717 C261.792,59.561 259.573,58.983 257.132,58.983 C254.709,58.983 252.5,59.561 250.503,60.717 C248.505,61.873 246.928,63.459 245.773,65.474 C244.617,67.49 244.04,69.718 244.04,72.159 C244.04,74.6 244.617,76.824 245.773,78.831 Z M239.254,61.771 C241.057,58.655 243.526,56.2 246.66,54.406 C249.795,52.613 253.276,51.716 257.105,51.716 C260.932,51.716 264.418,52.613 267.562,54.406 C270.706,56.2 273.183,58.655 274.996,61.771 C276.808,64.887 277.714,68.35 277.714,72.159 C277.714,75.95 276.808,79.404 274.996,82.52 C273.183,85.636 270.706,88.091 267.562,89.884 C264.418,91.678 260.932,92.575 257.105,92.575 C253.276,92.575 249.795,91.678 246.66,89.884 C243.526,88.091 241.057,85.636 239.254,82.52 C237.451,79.404 236.55,75.95 236.55,72.159 C236.55,68.35 237.451,64.887 239.254,61.771 L239.254,61.771 Z" id="Fill-10" fill="#464B4C" mask="url(#mask-4)"/>
                <path d="M7.566,25.476 C8.214,26.643 9.134,27.55 10.325,28.199 C11.516,28.848 12.891,29.172 14.452,29.172 C16.013,29.172 17.388,28.848 18.579,28.199 C19.77,27.55 20.694,26.643 21.351,25.476 C22.008,24.31 22.336,22.971 22.336,21.46 L22.336,2.84217094e-14 L28.989,2.84217094e-14 L28.989,21.46 C28.989,24.269 28.381,26.762 27.166,28.938 C25.95,31.115 24.242,32.806 22.041,34.013 C19.839,35.221 17.31,35.824 14.452,35.824 C11.594,35.824 9.069,35.221 6.876,34.013 C4.683,32.806 2.978,31.115 1.763,28.938 C0.547,26.762 -0.06,24.269 -0.06,21.46 L-0.06,2.84217094e-14 L6.592,2.84217094e-14 L6.592,21.46 C6.592,22.971 6.916,24.31 7.566,25.476" id="Fill-12" fill="#D8223A" mask="url(#mask-4)"/>
            </g>
            <path d="M65.627,324.353 L65.627,359.709 L60.65,359.709 C59.795,359.709 59.032,359.217 58.358,358.231 L41.481,333.42 L41.358,333.42 C41.9,334.767 42.171,336.204 42.171,337.732 L42.146,359.709 L35.518,359.709 L35.518,324.353 L40.791,324.353 C41.579,324.353 42.232,324.505 42.75,324.809 C43.267,325.113 43.789,325.642 44.314,326.398 L59.862,349.288 L59.96,349.288 C59.319,347.809 58.999,346.29 58.999,344.729 L59.024,324.353 L65.627,324.353" id="Fill-14" fill="#D8223A"/>
            <polygon id="Fill-15" fill="#D8223A" points="73.264 359.709 79.917 359.709 79.917 324.377 73.264 324.377"/>
            <path d="M119.141,324.353 L103.939,359.709 L98.05,359.709 L82.848,324.353 L87.481,324.353 C88.302,324.353 89.016,324.554 89.624,324.957 C90.232,325.359 90.692,325.938 91.004,326.694 L99.824,347.341 C100.416,348.671 100.769,350.314 100.884,352.269 L101.081,352.269 C101.229,350.314 101.582,348.671 102.14,347.341 L110.961,326.694 C111.289,325.938 111.758,325.359 112.366,324.957 C112.973,324.554 113.68,324.353 114.484,324.353 L119.141,324.353" id="Fill-16" fill="#464B4C"/>
            <polyline id="Fill-17" fill="#464B4C" points="122.072 359.709 122.072 324.353 144.864 324.353 144.864 330.784 128.725 330.784 128.725 338.594 141.833 338.594 141.833 344.778 128.725 344.778 128.725 353.279 144.864 353.279 144.864 359.709 122.072 359.709"/>
            <path d="M157.059,340.121 L163.367,340.121 C164.287,340.121 165.124,339.917 165.88,339.506 C166.636,339.095 167.235,338.532 167.679,337.818 C168.122,337.103 168.344,336.311 168.344,335.44 C168.344,334.537 168.122,333.732 167.679,333.026 C167.235,332.32 166.632,331.769 165.867,331.375 C165.104,330.981 164.254,330.784 163.317,330.784 L157.059,330.784 L157.059,340.121 Z M150.407,359.709 L150.407,324.353 L163.638,324.353 C165.757,324.353 167.679,324.825 169.404,325.769 C171.128,326.715 172.491,328.033 173.493,329.724 C174.495,331.416 174.996,333.321 174.996,335.44 C174.996,337.182 174.573,338.762 173.728,340.183 C172.881,341.604 171.814,342.721 170.524,343.534 C169.235,344.347 167.966,344.762 166.718,344.778 L165.929,344.803 L165.929,344.852 C166.832,344.918 167.58,345.111 168.172,345.431 C168.762,345.751 169.263,346.216 169.675,346.823 L178.864,359.709 L173.37,359.709 C172.582,359.709 171.883,359.566 171.276,359.279 C170.668,358.991 170.109,358.453 169.601,357.665 L161.667,346.552 L157.059,346.552 L157.059,359.709 L150.407,359.709 L150.407,359.709 Z" id="Fill-18" fill="#464B4C"/>
            <path d="M184.704,358.65 C182.65,357.632 180.827,356.301 179.234,354.659 L180.663,352.146 C180.926,351.702 181.287,351.357 181.747,351.11 C182.207,350.864 182.708,350.741 183.25,350.741 C184.006,350.741 184.704,350.954 185.345,351.381 C186.297,352.055 187.332,352.622 188.449,353.082 C189.566,353.541 190.543,353.772 191.381,353.772 C193.089,353.772 194.457,353.381 195.484,352.601 C196.51,351.821 197.023,350.683 197.023,349.189 C197.023,348.17 196.568,347.267 195.656,346.479 C194.744,345.69 193.303,344.918 191.332,344.162 C187.816,342.914 185.225,341.444 183.558,339.752 C181.891,338.061 181.058,336.056 181.058,333.74 C181.058,331.818 181.517,330.11 182.437,328.615 C183.357,327.121 184.651,325.959 186.318,325.129 C187.985,324.299 189.894,323.885 192.046,323.885 C193.787,323.885 195.57,324.222 197.393,324.895 C199.216,325.569 200.694,326.521 201.828,327.753 L200.596,329.921 C200.218,330.562 199.771,331.039 199.253,331.35 C198.735,331.663 198.182,331.818 197.59,331.818 C197.064,331.818 196.58,331.712 196.136,331.498 C195.479,331.088 194.777,330.784 194.03,330.587 C193.282,330.389 192.621,330.291 192.046,330.291 C190.765,330.291 189.722,330.599 188.917,331.214 C188.112,331.831 187.71,332.665 187.71,333.716 C187.71,334.57 188.145,335.329 189.016,335.995 C189.886,336.66 191.266,337.305 193.155,337.929 C196.686,338.98 199.323,340.438 201.064,342.302 C202.805,344.167 203.676,346.454 203.676,349.164 C203.676,351.316 203.15,353.225 202.099,354.893 C201.047,356.56 199.577,357.858 197.688,358.785 C195.8,359.713 193.64,360.177 191.209,360.177 C188.925,360.177 186.757,359.669 184.704,358.65" id="Fill-19" fill="#464B4C"/>
            <polygon id="Fill-20" fill="#464B4C" points="208.875 359.709 215.527 359.709 215.527 324.377 208.875 324.377"/>
            <polyline id="Fill-21" fill="#464B4C" points="219.494 324.353 246.769 324.353 246.769 330.71 236.47 330.71 236.47 359.709 229.818 359.709 229.818 330.71 219.494 330.71 219.494 324.353"/>
            <path d="M264.978,346.897 L260.543,336.648 C260.181,335.793 259.927,335.046 259.779,334.405 C259.631,333.765 259.557,333.058 259.557,332.287 L259.311,332.287 C259.294,333.075 259.212,333.79 259.065,334.43 C258.917,335.071 258.662,335.81 258.3,336.648 L253.865,346.897 L264.978,346.897 Z M277.815,359.709 L273.059,359.709 C272.271,359.709 271.56,359.5 270.928,359.081 C270.295,358.662 269.823,358.075 269.511,357.319 L267.417,352.466 L251.451,352.466 L249.357,357.319 C249.028,358.075 248.548,358.662 247.915,359.081 C247.283,359.5 246.572,359.709 245.784,359.709 L241.029,359.709 L256.477,324.353 L262.366,324.353 L277.815,359.709 L277.815,359.709 Z" id="Fill-22" fill="#464B4C"/>
            <path d="M250.906,311.494 C251.477,312.987 252.72,315.65 253.461,317.266 C253.928,318.284 254.978,319.748 256.524,319.748 C258.54,319.747 259.722,319.743 260.312,319.743 C259.881,318.825 258.439,315.255 257.536,313.545 C256.642,311.853 255.265,311.475 254.197,311.465 C253.092,311.453 250.906,311.494 250.906,311.494" id="Fill-23" fill="#464B4C"/>
            <path d="M19.869,139.066 C19.663,138.699 19.382,138.409 19.029,138.197 C18.676,137.985 18.286,137.882 17.859,137.888 C17.417,137.894 17.024,138.009 16.681,138.232 C16.338,138.454 16.073,138.754 15.885,139.131 C15.698,139.508 15.607,139.926 15.614,140.385 L15.659,143.451 L20.235,143.384 L20.189,140.293 C20.183,139.842 20.076,139.434 19.869,139.066" id="Fill-24" fill="#D8223A"/>
            <path d="M36.326,75.77 C35.876,75.703 35.498,75.619 35.193,75.517 C34.887,75.415 34.573,75.265 34.249,75.068 L34.187,75.171 C34.513,75.38 34.79,75.596 35.02,75.821 C35.251,76.047 35.495,76.342 35.753,76.708 L38.907,81.181 L41.745,76.532 L36.326,75.77" id="Fill-25" fill="#D8223A"/>
            <path d="M255.234,114.618 C255.511,114.937 255.843,115.164 256.232,115.3 C256.621,115.437 257.024,115.459 257.441,115.366 C257.873,115.27 258.234,115.079 258.525,114.792 C258.816,114.505 259.016,114.158 259.123,113.751 C259.23,113.343 259.235,112.916 259.135,112.468 L258.472,109.473 L254.004,110.464 L254.673,113.481 C254.771,113.921 254.957,114.301 255.234,114.618" id="Fill-26" fill="#D8223A"/>
            <path d="M240.081,73.914 C240.336,73.537 240.575,73.233 240.799,73.002 C241.023,72.77 241.294,72.551 241.611,72.345 L241.545,72.244 C241.217,72.448 240.901,72.604 240.598,72.714 C240.295,72.824 239.923,72.917 239.483,72.992 L234.086,73.903 L237.05,78.471 L240.081,73.914" id="Fill-27" fill="#D8223A"/>
            <path d="M159.012,17.923 C158.26,17.305 157.386,16.923 156.391,16.778 L152.759,16.249 L151.128,27.445 L154.76,27.974 C155.755,28.119 156.702,28.005 157.597,27.631 C158.494,27.257 159.243,26.677 159.845,25.89 C160.449,25.103 160.825,24.196 160.975,23.169 C161.125,22.141 161.023,21.164 160.67,20.238 C160.316,19.313 159.764,18.541 159.012,17.923" id="Fill-28" fill="#D8223A"/>
            <path d="M149.819,253.07 C149.476,252.215 149.024,251.576 148.461,251.151 C147.899,250.727 147.256,250.541 146.534,250.592 C145.811,250.643 145.203,250.918 144.709,251.416 C144.216,251.916 143.86,252.61 143.641,253.501 C143.421,254.393 143.354,255.44 143.439,256.645 C143.524,257.841 143.737,258.866 144.08,259.716 C144.423,260.568 144.873,261.206 145.432,261.631 C145.99,262.055 146.631,262.242 147.354,262.19 C148.076,262.139 148.686,261.864 149.184,261.365 C149.681,260.866 150.039,260.171 150.259,259.28 C150.478,258.389 150.545,257.345 150.461,256.148 C150.376,254.952 150.162,253.926 149.819,253.07" id="Fill-29" fill="#D8223A"/>
            <path d="M129.031,252.584 L125.02,257.302 C124.902,257.437 124.764,257.561 124.608,257.675 C124.451,257.789 124.306,257.868 124.173,257.911 L128.884,258.368 L129.533,251.661 C129.486,251.811 129.414,251.974 129.316,252.15 C129.218,252.327 129.123,252.471 129.031,252.584" id="Fill-30" fill="#D8223A"/>
            <path d="M166.151,249.143 C166.116,249.342 166.074,249.51 166.024,249.646 L163.784,255.421 C163.717,255.586 163.628,255.748 163.517,255.907 C163.407,256.067 163.296,256.189 163.184,256.274 L167.784,255.159 L166.196,248.611 C166.2,248.767 166.186,248.945 166.151,249.143" id="Fill-31" fill="#D8223A"/>
            <path d="M167.613,170.38 C165.825,167.928 160.069,157.934 161.972,151.687 C163.561,146.47 172.024,145.543 177.775,146.855 C169.767,141.96 159.486,144.62 158.268,152.074 C157.25,158.297 161.061,166.575 162.948,169.433 C164.42,169.962 166.438,170.12 167.613,170.38" id="Fill-32" fill="#D8223A"/>
            <path d="M185.696,140.33 C185.459,140.271 184.493,140.788 185.223,141.716 C193.095,151.738 194.255,167.94 191.678,174.646 C204.908,164.973 200.972,144.133 185.696,140.33" id="Fill-33" fill="#D8223A"/>
            <path d="M161.433,180.881 C163.74,180.739 167.366,179.292 168.716,177.768 C166.264,177.798 159.611,177.425 158.91,177.732 C156.622,178.358 155.094,179.329 152.575,180.764 C153.524,180.621 158.242,181.078 161.433,180.881" id="Fill-34" fill="#D8223A"/>
            <path d="M112.509,115.418 C112.816,114.699 112.34,114.526 112.251,114.115 C112.161,113.7 112.42,113.401 111.886,113.186 C111.465,113.017 110.871,114.007 110.908,115.079 C110.938,115.955 112.135,116.293 112.509,115.418" id="Fill-35" fill="#D8223A"/>
            <path d="M111.416,173.228 C115.23,173.009 117.032,170.368 120.503,169.343 C116.515,169.834 110.19,169.819 108.867,170.06 C107.748,170.263 102.31,172.429 100.342,173.198 C102.134,173.072 109.966,173.312 111.416,173.228" id="Fill-36" fill="#D8223A"/>
            <path d="M111.888,166.421 C111.493,164.495 111.265,163.779 110.946,162.54 C102.959,158.814 105.458,146.741 112.781,145.215 C98.6,145.348 100.484,165.5 111.888,166.421" id="Fill-37" fill="#D8223A"/>
            <path d="M103.063,124.879 C103.363,124.159 103.152,123.158 103.235,122.673 C103.425,121.564 104.19,120.412 103.541,120.121 C102.885,119.827 102.794,121.188 102.116,121.818 C101.556,122.338 99.109,124.206 100.558,125.915 C101.103,126.558 102.651,125.869 103.063,124.879" id="Fill-38" fill="#D8223A"/>
            <path d="M138.703,64.188 C138.389,64.121 137.533,64.368 138.021,64.697 C138.409,64.957 138.77,66.189 139.522,66.259 C139.907,66.294 139.646,65.809 139.928,65.789 C140.209,65.769 140.596,66.583 140.831,66.313 C141.12,65.981 139.865,64.436 138.703,64.188" id="Fill-39" fill="#D8223A"/>
            <path d="M264.882,143.265 C264.717,143.509 264.442,143.747 264.055,143.98 L252.371,150.861 L252.368,150.909 C253.111,150.642 253.864,150.533 254.627,150.583 L264.591,151.238 L264.383,154.468 L247.091,153.351 L247.249,150.917 C247.276,150.499 247.541,150.141 248.044,149.843 L260.711,142.373 L260.715,142.312 C260.039,142.535 259.327,142.622 258.58,142.574 L247.833,141.868 L248.042,138.626 L265.333,139.743 L265.167,142.322 C265.142,142.707 265.047,143.022 264.882,143.265 Z M259.925,175.34 L256.867,174.579 L258.775,166.904 L255.06,165.981 L253.51,172.215 L250.57,171.484 L252.119,165.25 L248.076,164.245 L246.168,171.92 L243.11,171.16 L245.804,160.321 L262.62,164.5 L259.925,175.34 Z M255.975,186.378 C255.816,186.73 255.617,186.991 255.377,187.161 C255.137,187.331 254.795,187.457 254.352,187.54 L240.994,189.874 L240.974,189.918 C241.763,189.93 242.507,190.092 243.204,190.407 L252.302,194.523 L250.972,197.473 L235.177,190.35 L236.179,188.126 C236.351,187.745 236.726,187.503 237.301,187.4 L251.786,184.859 L251.81,184.804 C251.099,184.775 250.403,184.606 249.721,184.299 L239.907,179.86 L241.242,176.899 L257.038,184.022 L255.975,186.378 Z M244.388,207.588 C244.263,208.491 243.904,209.379 243.309,210.25 C242.828,210.955 242.199,211.583 241.422,212.135 C240.646,212.687 239.852,213.022 239.04,213.14 L238.503,212.042 C238.348,211.713 238.279,211.4 238.296,211.104 C238.313,210.808 238.402,210.541 238.566,210.302 C238.711,210.089 238.888,209.922 239.097,209.802 C239.445,209.649 239.762,209.449 240.048,209.201 C240.335,208.953 240.557,208.713 240.716,208.48 C241.07,207.962 241.234,207.454 241.207,206.958 C241.18,206.462 240.953,206.069 240.528,205.778 C240.183,205.542 239.755,205.509 239.245,205.677 C238.735,205.846 238.093,206.226 237.318,206.818 C235.917,207.957 234.599,208.621 233.363,208.811 C232.127,209 230.961,208.721 229.864,207.972 C228.993,207.377 228.366,206.637 227.981,205.75 C227.597,204.864 227.478,203.911 227.624,202.89 C227.771,201.869 228.179,200.866 228.851,199.883 C229.482,198.958 230.287,198.221 231.267,197.672 C232.247,197.122 233.289,196.752 234.394,196.561 L235.016,197.834 C235.123,198.063 235.163,198.304 235.135,198.558 C235.108,198.813 235.019,199.05 234.869,199.269 C234.661,199.575 234.382,199.798 234.032,199.94 C233.496,200.139 232.981,200.401 232.486,200.726 C231.991,201.051 231.628,201.383 231.396,201.722 C230.925,202.414 230.704,203.075 230.737,203.706 C230.769,204.337 231.087,204.859 231.692,205.272 C232.104,205.554 232.596,205.619 233.167,205.468 C233.738,205.317 234.449,204.947 235.299,204.358 C236.776,203.28 238.087,202.637 239.232,202.43 C240.378,202.223 241.419,202.439 242.356,203.079 C243.134,203.61 243.698,204.268 244.05,205.054 C244.4,205.839 244.513,206.684 244.388,207.588 Z M232.476,223.609 L219.491,212.156 L221.647,209.711 L234.632,221.164 L232.476,223.609 Z M224.241,231.43 C223.899,232.276 223.333,233.048 222.543,233.748 C221.904,234.313 221.141,234.768 220.253,235.113 C219.365,235.458 218.513,235.589 217.697,235.505 L217.445,234.309 C217.376,233.951 217.385,233.631 217.473,233.349 C217.562,233.066 217.715,232.828 217.932,232.637 C218.125,232.466 218.337,232.347 218.57,232.282 C218.944,232.219 219.3,232.102 219.639,231.932 C219.977,231.761 220.252,231.583 220.463,231.396 C220.932,230.981 221.215,230.529 221.31,230.041 C221.406,229.554 221.283,229.117 220.941,228.731 C220.664,228.418 220.257,228.28 219.722,228.319 C219.187,228.358 218.471,228.569 217.575,228.954 C215.937,229.715 214.496,230.036 213.252,229.917 C212.008,229.798 210.945,229.242 210.065,228.248 C209.366,227.458 208.939,226.586 208.783,225.633 C208.627,224.679 208.745,223.726 209.137,222.772 C209.529,221.818 210.171,220.946 211.063,220.157 C211.901,219.415 212.862,218.897 213.946,218.605 C215.03,218.311 216.132,218.207 217.25,218.293 L217.542,219.679 C217.589,219.927 217.569,220.171 217.48,220.411 C217.391,220.651 217.248,220.859 217.048,221.035 C216.772,221.28 216.446,221.428 216.072,221.48 C215.503,221.542 214.94,221.67 214.38,221.864 C213.821,222.058 213.388,222.291 213.08,222.563 C212.453,223.118 212.078,223.706 211.955,224.325 C211.832,224.945 212.013,225.529 212.498,226.078 C212.829,226.451 213.29,226.635 213.88,226.628 C214.471,226.622 215.251,226.437 216.22,226.073 C217.914,225.39 219.343,225.088 220.505,225.168 C221.666,225.247 222.623,225.711 223.375,226.562 C223.999,227.267 224.385,228.043 224.533,228.891 C224.681,229.738 224.583,230.584 224.241,231.43 Z M167.987,205.736 C168.154,206.435 169.172,210.7 169.409,211.803 C168.223,211.321 166.633,211.155 165.793,211.081 C165.498,209.891 164.673,206.259 164.554,205.736 C156.876,205.736 151.241,205.736 151.241,205.736 L151.241,195.886 C151.241,195.886 201.23,195.886 206.143,195.886 C212.611,195.886 212.372,205.736 206.538,205.736 C203.862,205.736 183.265,205.736 167.987,205.736 Z M172.331,260.789 L169.327,261.518 L168.513,258.163 L160.909,260.007 L160.141,257.658 C160.098,257.519 160.081,257.356 160.09,257.168 C160.098,256.98 160.131,256.799 160.188,256.628 L164.321,245.748 C164.421,245.475 164.563,245.238 164.751,245.035 C164.938,244.832 165.12,244.709 165.301,244.665 L168.246,243.951 L170.788,254.429 L173.029,253.886 L173.758,256.89 L171.517,257.433 L172.331,260.789 Z M153.078,260.727 C152.647,262.093 151.96,263.164 151.018,263.94 C150.076,264.717 148.927,265.154 147.57,265.25 C146.213,265.346 145.015,265.076 143.978,264.439 C142.941,263.802 142.112,262.838 141.492,261.546 C140.872,260.254 140.497,258.693 140.368,256.862 C140.238,255.023 140.389,253.419 140.82,252.049 C141.252,250.679 141.936,249.603 142.874,248.823 C143.811,248.042 144.958,247.604 146.316,247.508 C147.672,247.412 148.872,247.685 149.914,248.325 C150.956,248.966 151.787,249.934 152.407,251.229 C153.027,252.525 153.402,254.092 153.532,255.931 C153.662,257.762 153.51,259.36 153.078,260.727 Z M111.345,224.353 L111.345,214.503 L107.905,214.503 L109.319,208.083 C92.975,208.083 70.753,208.083 70.753,208.083 L70.753,198.233 L66.794,198.233 L80.211,176.242 C81.811,176.145 82.23,176.117 84.287,176.011 C82.704,178.59 70.595,198.355 70.753,198.233 C70.753,198.233 120.742,198.233 125.654,198.233 C132.122,198.233 131.883,208.083 126.049,208.083 C124.788,208.083 119.543,208.083 112.754,208.083 L111.345,214.503 C111.345,214.503 161.334,214.503 166.247,214.503 C172.714,214.503 172.475,224.353 166.642,224.353 C162.324,224.353 111.345,224.353 111.345,224.353 Z M133.958,261.965 L131.663,261.743 L131.33,265.18 L128.253,264.882 L128.586,261.444 L120.798,260.69 L120.843,258.22 C120.849,258.075 120.887,257.915 120.956,257.74 C121.026,257.565 121.116,257.405 121.227,257.263 L128.702,248.342 C128.885,248.117 129.099,247.94 129.342,247.81 C129.585,247.679 129.799,247.623 129.983,247.641 L133,247.933 L131.961,258.665 L134.256,258.888 L133.958,261.965 Z M109.94,261.958 L106.847,261.146 L110.208,248.37 C110.033,248.624 109.843,248.808 109.639,248.92 L108.583,249.517 C108.169,249.733 107.778,249.792 107.413,249.696 C107.062,249.604 106.788,249.383 106.589,249.031 L105.875,247.707 L111.347,244.412 L114.243,245.173 L109.94,261.958 Z M68.198,226.237 C67.925,227.427 67.326,228.532 66.402,229.554 L59.347,237.353 L56.929,235.165 L63.985,227.367 C64.482,226.817 64.804,226.224 64.952,225.587 C65.099,224.949 65.063,224.317 64.844,223.69 C64.624,223.063 64.231,222.493 63.664,221.979 C63.096,221.466 62.49,221.132 61.844,220.976 C61.198,220.82 60.564,220.846 59.942,221.055 C59.319,221.262 58.76,221.64 58.263,222.19 L51.208,229.989 L48.79,227.802 L55.845,220.003 C56.769,218.982 57.809,218.276 58.967,217.885 C60.124,217.493 61.301,217.44 62.498,217.725 C63.695,218.01 64.812,218.622 65.851,219.562 C66.89,220.501 67.609,221.551 68.009,222.711 C68.409,223.87 68.472,225.046 68.198,226.237 Z M40.606,218.506 C40.373,218.195 40.241,217.895 40.208,217.603 C40.175,217.312 40.229,216.951 40.37,216.522 L44.764,203.694 L44.735,203.655 C44.345,204.341 43.844,204.914 43.232,205.373 L35.24,211.36 L33.297,208.772 L47.152,198.368 L48.617,200.318 C48.868,200.653 48.899,201.097 48.711,201.651 L43.956,215.566 L43.992,215.615 C44.36,215.005 44.844,214.476 45.443,214.026 L54.062,207.568 L56.013,210.166 L42.157,220.571 L40.606,218.506 Z M26.844,197.45 L42.073,189.211 L43.624,192.079 L28.396,200.317 L26.844,197.45 Z M22.544,188.836 C22.404,188.459 22.375,188.096 22.457,187.749 C22.539,187.401 22.727,187.091 23.021,186.819 L31.014,179.257 C31.525,178.759 32.22,178.318 33.099,177.932 L33.065,177.843 C32.142,178.106 31.327,178.223 30.621,178.192 L19.631,177.645 C19.228,177.622 18.882,177.505 18.594,177.294 C18.306,177.083 18.093,176.793 17.956,176.423 L17.165,174.283 L36,175.264 L37.001,177.971 L23.33,190.966 L22.544,188.836 Z M13.416,155.688 L16.516,155.122 L17.938,162.902 L21.703,162.213 L20.548,155.894 L23.53,155.349 L24.685,161.668 L28.783,160.919 L27.36,153.139 L30.46,152.572 L32.469,163.559 L15.425,166.676 L13.416,155.688 Z M12.461,140.274 C12.445,139.236 12.663,138.291 13.113,137.439 C13.563,136.587 14.199,135.909 15.021,135.406 C15.843,134.903 16.773,134.644 17.811,134.628 C18.664,134.616 19.442,134.811 20.144,135.216 C20.847,135.62 21.402,136.135 21.81,136.761 C22.217,137.388 22.43,138.006 22.447,138.617 L22.464,139.004 L22.489,139.004 C22.514,138.561 22.603,138.193 22.756,137.9 C22.909,137.609 23.133,137.36 23.428,137.154 L29.676,132.558 L29.715,135.25 C29.721,135.637 29.655,135.98 29.519,136.279 C29.383,136.58 29.123,136.857 28.74,137.112 L23.353,141.08 L23.386,143.338 L29.833,143.243 L29.881,146.502 L12.555,146.758 L12.461,140.274 Z M13.597,120.211 C13.721,119.367 14.011,118.527 14.467,117.691 C14.924,116.854 15.491,116.206 16.168,115.743 L17.132,116.496 C17.416,116.724 17.615,116.975 17.729,117.248 C17.844,117.521 17.88,117.802 17.838,118.088 C17.801,118.343 17.714,118.57 17.579,118.77 C17.334,119.059 17.136,119.378 16.987,119.726 C16.838,120.075 16.744,120.388 16.703,120.667 C16.611,121.289 16.687,121.816 16.928,122.25 C17.169,122.685 17.545,122.939 18.055,123.013 C18.469,123.074 18.868,122.918 19.252,122.543 C19.637,122.168 20.048,121.545 20.485,120.673 C21.246,119.036 22.141,117.861 23.168,117.15 C24.197,116.438 25.367,116.179 26.682,116.372 C27.725,116.525 28.613,116.916 29.347,117.545 C30.08,118.173 30.605,118.978 30.92,119.96 C31.236,120.942 31.308,122.022 31.134,123.201 C30.972,124.308 30.571,125.323 29.931,126.246 C29.291,127.17 28.516,127.958 27.605,128.614 L26.489,127.743 C26.293,127.583 26.151,127.383 26.064,127.143 C25.977,126.903 25.953,126.65 25.992,126.388 C26.046,126.022 26.199,125.698 26.452,125.418 C26.846,125.004 27.195,124.543 27.497,124.034 C27.8,123.525 27.981,123.068 28.04,122.662 C28.162,121.833 28.07,121.143 27.765,120.589 C27.46,120.036 26.945,119.706 26.22,119.6 C25.726,119.527 25.256,119.684 24.808,120.069 C24.361,120.456 23.884,121.099 23.378,122.001 C22.522,123.616 21.625,124.768 20.686,125.457 C19.747,126.144 18.716,126.406 17.593,126.241 C16.661,126.104 15.866,125.76 15.206,125.207 C14.547,124.655 14.076,123.945 13.792,123.077 C13.509,122.21 13.443,121.254 13.597,120.211 Z M17.491,103.459 L34.177,108.083 L33.306,111.225 L16.62,106.601 L17.491,103.459 Z M24.873,83.767 L27.745,84.974 L25.79,89.627 L38.892,95.131 L37.629,98.137 L24.527,92.632 L22.567,97.296 L19.695,96.09 L24.873,83.767 Z M31.649,71.868 L50.383,74.435 L49.168,76.424 C48.967,76.754 48.698,76.997 48.361,77.155 C48.024,77.313 47.658,77.36 47.262,77.298 L44.697,76.934 L40.62,83.612 L42.115,85.728 C42.347,86.058 42.47,86.409 42.484,86.78 C42.497,87.152 42.404,87.503 42.202,87.832 L40.988,89.822 L30.145,74.33 L31.649,71.868 Z M42.035,58.165 C42.266,57.282 42.727,56.444 43.42,55.648 C43.98,55.005 44.679,54.455 45.515,53.999 C46.35,53.542 47.179,53.303 47.999,53.28 L48.403,54.434 C48.518,54.78 48.55,55.098 48.499,55.39 C48.447,55.682 48.326,55.937 48.136,56.155 C47.967,56.349 47.772,56.494 47.549,56.589 C47.186,56.7 46.848,56.861 46.534,57.074 C46.221,57.287 45.972,57.499 45.787,57.712 C45.374,58.184 45.152,58.669 45.12,59.165 C45.088,59.661 45.267,60.078 45.655,60.416 C45.971,60.691 46.392,60.775 46.918,60.668 C47.444,60.56 48.126,60.259 48.965,59.761 C50.491,58.795 51.879,58.291 53.127,58.247 C54.377,58.205 55.502,58.62 56.503,59.492 C57.299,60.185 57.835,60.995 58.112,61.92 C58.39,62.845 58.395,63.806 58.13,64.802 C57.865,65.799 57.341,66.746 56.558,67.644 C55.823,68.488 54.936,69.125 53.899,69.555 C52.862,69.986 51.783,70.232 50.663,70.291 L50.195,68.954 C50.116,68.714 50.104,68.469 50.161,68.22 C50.218,67.971 50.335,67.746 50.509,67.546 C50.752,67.267 51.056,67.078 51.42,66.978 C51.976,66.843 52.518,66.644 53.048,66.379 C53.577,66.115 53.977,65.827 54.247,65.518 C54.797,64.887 55.093,64.257 55.135,63.626 C55.178,62.995 54.923,62.44 54.371,61.958 C53.994,61.63 53.514,61.507 52.929,61.591 C52.344,61.673 51.595,61.957 50.681,62.442 C49.088,63.339 47.711,63.823 46.548,63.893 C45.387,63.965 44.378,63.628 43.522,62.882 C42.812,62.262 42.33,61.543 42.073,60.722 C41.818,59.901 41.805,59.049 42.035,58.165 Z M62.847,171.293 C62.413,171.272 61.85,171.382 61.821,170.666 C63.073,170.587 64.609,168.857 65.763,168.098 C67.101,167.217 70.288,166.756 72.218,166.202 C74.148,165.649 80.741,161.594 84.72,161.188 C84.636,163.047 87.628,169.934 89.244,171.592 C86.327,172.751 76.947,172.718 76.086,172.875 C77.335,171.382 74.628,169.053 72.718,172.947 C72.189,174.027 72.096,175.25 70.463,176.95 C68.842,176.95 60.867,176.85 58.295,176.89 C59.242,173.412 63.338,171.487 62.847,171.293 Z M70.618,134.63 C70.788,134.482 71.074,134.333 71.25,134.411 C73.163,135.252 77.788,136.906 81.691,137.043 C81.271,138.384 81.055,140.398 81.074,141.285 C76.289,140.59 69.389,135.703 70.618,134.63 Z M104.311,193.68 C101.991,194.583 98.434,194.303 97.672,193.627 C98.53,192.821 100.426,191.137 100.251,190.437 C98.981,190.273 96.031,191.348 95.327,191.628 C94.614,190.123 95.374,188.202 96.985,186.979 C98.363,187.612 100.199,188.322 101.054,188.167 C101.485,187.008 100.969,185.508 100.816,184.951 C101.453,184.642 105.721,184.208 107.069,185.08 C106.49,185.612 104.602,187.195 104.55,188.235 C105.599,188.252 108.06,187.612 109.38,187.035 C110.239,188.432 109.459,190.473 107.878,191.707 C106.804,191.053 104.71,190.5 103.609,190.581 C103.445,191.709 103.863,192.712 104.311,193.68 Z M132.249,180.864 C132.249,180.864 131.045,195.665 131.024,196.716 C130.016,195.793 128.927,195.293 127.788,195.048 C127.871,193.817 128.87,180.911 128.87,180.911 L132.249,180.864 Z M207.216,193.033 C205.655,192.632 204.371,192.607 203.077,192.749 C202.118,191.249 196.387,181.881 195.507,180.395 C196.387,179.894 198.162,178.415 198.162,178.415 C199.186,179.904 206.335,191.656 207.216,193.033 Z M90.392,117.135 C92.999,115.262 102.088,111.782 105.521,110.878 C107.309,110.408 109.811,109.032 111.617,108.512 C112.761,108.183 113.906,108.545 114.514,109.233 C114.705,109.45 114.523,110.12 114.81,110.336 C115.085,110.544 118.5,112.938 118.343,113.871 C117.988,115.983 117.388,116.167 116.958,117 C115.911,119.025 115.044,121.293 113.07,124.785 C108.139,139.241 99.587,131.219 97.49,128.634 C96.23,130.657 93.574,139.336 91.904,142.298 C97.452,140.528 98.191,136.491 98.242,134.148 C98.925,134.834 102.901,137.205 106.743,136.491 C104.354,139.78 92.055,149.018 99.188,162.926 C99.371,158.823 98.91,155.509 100.948,149.378 C103.14,142.783 112.064,138.601 113.976,131.198 C113.976,131.198 114.48,131.352 115.499,131.715 C118.92,132.933 123.799,137.977 125.277,138.159 C127.19,138.396 168.085,138.251 171.217,138.307 C174.904,138.372 181.365,134.666 188.446,137.554 C209.143,145.994 206.222,174.132 189.284,179.545 C190.299,177.692 191.217,175.943 191.678,174.646 C188.284,176.843 187.442,176.426 184.634,177.515 C183.913,177.795 183,178.92 183.318,180.86 C183.694,183.156 184.35,185.553 183.031,187.318 C181.973,188.647 162.356,186.853 160.57,187.945 C158.193,189.398 157.483,190.671 153.669,190.697 C153.935,190.024 154.098,188.4 152.394,188.562 C149.342,188.854 151.22,193.254 148.717,194.179 C148.129,194.396 147.672,194.165 147.335,194.298 C146.086,194.791 145.991,196.32 145.858,197.303 C145.117,197.373 134.629,197.396 133.479,197.33 C134.655,193.755 137.105,191.728 137.744,191.414 C137.234,191.253 136.923,191.427 136.805,190.551 C140.22,190.132 140.261,188.184 142.266,186.849 C143.477,186.043 145.077,185.192 146.797,184.139 C148.384,183.167 151.101,181.608 152.575,180.764 C135.509,178.655 136.907,166.425 140.106,159.288 C146.414,158.292 146.768,151.168 146.352,149.498 C145.936,147.828 145.704,145.045 145.699,141.709 C143.036,149.123 140.514,148.993 136.598,158.371 C132.075,169.2 136.11,177.431 141.533,180.726 L132.273,180.803 C132.736,173.062 130.602,171.345 129.519,169.674 C128.319,167.824 129.628,156.126 127.768,153.476 C127.033,152.429 123.424,150.709 122.019,150.708 C127.513,155.392 124.246,165.738 126.321,170.831 C127.204,172.999 129.314,173.629 128.932,180.697 C126.653,180.913 102.935,180.928 101.675,180.962 C103.775,179.236 100.421,176.126 98.015,180.946 C97.524,181.93 97.224,182.266 95.871,183.252 C94.621,183.158 85.288,183.386 84.195,183.235 C84.43,181.838 87.65,178.802 89.184,177.871 C88.868,177.57 87.947,178.006 88.167,176.867 C88.669,176.866 89.51,176.713 90.849,175.983 C92.188,175.254 92.089,173.586 96.076,173.034 C91.552,171.246 88.519,164.251 87.792,159.681 C85.784,156.556 80.81,148.522 81.173,141.21 C90.579,141.301 93.01,130.975 94.141,128.159 C95.218,125.476 91.131,122.17 89.357,126.975 C88.06,130.486 85.8,136.4 81.703,136.967 C82.028,134.921 89.435,121.031 90.392,117.135 Z M85.434,101.098 C88.626,100.788 98.374,101.279 97.509,110.084 C93.649,111.665 92.306,112.319 92.306,112.319 C94.635,104.61 88.78,102.312 85.016,101.959 C83.68,101.834 83.868,101.249 85.434,101.098 Z M89.662,71.504 C91.798,72.861 97.763,75.496 103.048,75.378 C103.07,74.909 103.066,74.257 103.15,73.652 C98.96,73.07 92.688,69.346 91.56,68.424 C90.417,67.488 90.586,66.5 91.293,64.786 C93.528,66.722 97.503,69.346 103.624,70.94 C103.737,70.521 104.037,69.579 104.17,69.204 C99.867,67.398 96.053,64.24 94.219,61.792 C93.024,60.197 94.403,58.812 94.899,57.947 C95.847,60.3 101.301,65.334 105.388,66.734 C105.701,66.197 105.907,65.923 106.297,65.375 C102.045,62.956 98.969,57.621 98.28,56.081 C97.592,54.541 98.903,53.315 99.867,52.404 C100.862,55.669 102.747,59.769 108.153,63.26 C108.673,62.626 109.002,62.678 109.376,62.194 C105.944,59.072 104.341,53.244 104.054,51.42 C103.716,49.27 105.022,48.761 106.562,48.046 C106.79,54.204 109.2,60.469 116.182,63.391 C118.916,64.535 118.459,68.129 115.44,70.539 C111.257,73.878 112.701,81.304 120.057,81.883 C123.902,82.186 126.546,78.747 132.469,77.372 C131.759,78.077 131.389,78.916 130.199,80.123 C130.648,80.291 131.389,80.606 132.136,80.606 C128.571,86.746 129.901,93.306 130.239,94.838 C129.764,93.742 129.273,93.488 128.859,93.415 C128.795,99.173 126.719,105.021 125.241,107.288 C124.651,106.472 124.221,105.84 123.277,105.11 C124.633,102.602 126.23,97.256 126.132,92.154 C125.93,92.076 125.248,91.857 124.286,91.823 C123.821,95.668 121.887,100.131 120.264,102.364 C120.007,102.732 118.526,102.743 116.884,102.409 C118.594,100.026 120.795,95.861 121.447,91.901 C120.756,91.98 120.296,91.938 119.445,91.956 C119.005,93.458 116.232,97.916 113.699,100.562 C112.725,101.581 111.483,102.097 108.776,101.448 C112.924,98.19 115.753,93.39 116.532,91.687 C116.081,91.585 115.77,91.521 114.868,91.268 C112.029,95.043 107.976,98.055 105.184,99.431 C103.361,100.33 101.953,99.886 100.139,98.616 C107.142,96.358 111.5,91.066 112.181,90.196 C111.704,89.954 111.429,89.76 110.637,89.3 C107.241,92.235 102.78,94.12 98.62,95.012 C96.654,95.433 95.409,93.62 94.935,92.634 C101.78,92.309 106.645,88.946 108.385,87.544 C108.044,87.267 107.592,86.758 107.225,86.358 C104.469,87.972 98.24,89.278 94.207,88.971 C92.419,88.834 91.96,87.083 91.514,85.972 C97.728,86.967 103.293,85.132 105.551,84.09 C105.274,83.623 104.877,82.927 104.686,82.544 C100.18,83.756 93.677,82.887 91.56,82.283 C89.56,81.712 89.606,80.43 89.515,78.877 C91.56,79.64 98.887,81.14 103.685,79.957 C103.609,79.672 103.309,78.327 103.279,78.16 C97.146,78.291 91.437,75.565 90.29,75.035 C89.143,74.504 89.383,72.125 89.662,71.504 Z M89.769,24.569 C89.926,23.724 90.312,22.964 90.928,22.29 C91.543,21.617 92.343,21.09 93.327,20.71 C94.123,20.403 94.997,20.243 95.95,20.228 C96.902,20.215 97.746,20.389 98.482,20.752 L98.301,21.961 C98.241,22.32 98.121,22.617 97.94,22.851 C97.758,23.085 97.532,23.254 97.262,23.359 C97.021,23.452 96.781,23.488 96.541,23.469 C96.168,23.398 95.793,23.382 95.417,23.424 C95.04,23.466 94.72,23.538 94.458,23.639 C93.872,23.865 93.449,24.19 93.19,24.614 C92.931,25.037 92.894,25.49 93.08,25.97 C93.231,26.361 93.563,26.632 94.079,26.782 C94.594,26.932 95.339,26.983 96.313,26.935 C98.113,26.793 99.576,26.994 100.701,27.539 C101.826,28.084 102.628,28.975 103.106,30.215 C103.486,31.199 103.583,32.164 103.396,33.112 C103.21,34.06 102.767,34.913 102.067,35.67 C101.367,36.428 100.462,37.021 99.351,37.45 C98.307,37.854 97.226,38.004 96.107,37.9 C94.988,37.797 93.92,37.511 92.902,37.041 L93.112,35.64 C93.153,35.391 93.258,35.169 93.425,34.976 C93.591,34.782 93.798,34.637 94.047,34.541 C94.391,34.408 94.749,34.382 95.117,34.464 C95.671,34.604 96.244,34.681 96.836,34.694 C97.428,34.707 97.916,34.639 98.299,34.492 C99.079,34.19 99.636,33.77 99.967,33.232 C100.299,32.694 100.333,32.084 100.069,31.4 C99.889,30.935 99.521,30.602 98.966,30.403 C98.41,30.203 97.614,30.104 96.58,30.107 C94.752,30.157 93.308,29.942 92.248,29.463 C91.186,28.984 90.452,28.215 90.043,27.156 C89.703,26.277 89.612,25.415 89.769,24.569 Z M118.323,13.998 L118.986,17.041 L114.054,18.116 L117.079,32.002 L113.893,32.696 L110.869,18.809 L105.926,19.886 L105.263,16.842 L118.323,13.998 Z M113.429,46.951 C113.29,46.547 113.167,46.136 113.065,45.716 C114.052,45.446 115.047,45.197 116.047,44.96 C115.52,45.51 114.486,46.664 113.429,46.951 Z M119.524,46.522 C117.606,48.968 118.122,51.086 116.719,52.194 C116.702,52.207 116.686,52.213 116.669,52.226 C115.856,51.385 115.147,50.446 114.56,49.425 C116.729,48.609 117.651,46.759 119.232,45.958 C119.323,46.15 119.42,46.338 119.524,46.522 Z M121.787,49.106 C121.349,51.484 122.602,53.901 121.953,55.686 C120.824,55.268 119.765,54.711 118.792,54.037 C120.431,52.453 120.503,50.03 121.287,48.695 C121.448,48.838 121.614,48.975 121.787,49.106 Z M124.589,50.455 C124.923,50.556 125.113,50.642 125.463,50.701 C126.039,53.515 128.045,54.764 128.204,56.506 C127.769,56.547 127.328,56.57 126.881,56.57 C126.08,56.57 125.295,56.5 124.529,56.372 C125.312,54.163 124.641,52.257 124.589,50.455 Z M132.616,42.518 C132.525,45.611 129.996,48.091 126.881,48.091 C124.227,48.091 122,46.288 121.342,43.842 C125.03,43.182 128.794,42.741 132.616,42.518 Z M129.24,12.823 L129.709,23.33 C129.742,24.069 129.93,24.718 130.273,25.274 C130.616,25.831 131.086,26.256 131.683,26.547 C132.28,26.839 132.961,26.967 133.725,26.933 C134.489,26.9 135.155,26.711 135.724,26.367 C136.293,26.024 136.726,25.559 137.022,24.974 C137.318,24.388 137.45,23.726 137.417,22.986 L136.949,12.48 L140.206,12.334 L140.674,22.84 C140.735,24.216 140.492,25.449 139.944,26.541 C139.396,27.634 138.598,28.499 137.546,29.138 C136.495,29.777 135.27,30.128 133.87,30.191 C132.471,30.253 131.221,30.013 130.122,29.469 C129.022,28.926 128.15,28.135 127.508,27.096 C126.865,26.057 126.513,24.85 126.452,23.475 L125.984,12.968 L129.24,12.823 Z M141.099,42.512 C138.932,42.622 136.284,43.471 135.27,43.471 C135.317,43.118 135.349,42.762 135.351,42.397 C136.313,42.368 137.276,42.348 138.245,42.348 C139.201,42.348 140.153,42.367 141.102,42.395 C141.102,42.434 141.099,42.472 141.099,42.512 Z M142.942,52.507 L143.495,53.91 L142.119,54.389 C142.119,54.389 142.829,56.462 143.056,57.853 C141.136,59.088 144.301,60.693 144.174,58.287 C144.51,58.126 146.753,57.339 146.753,57.339 L146.792,56.247 L147.911,55.971 L147.888,57.039 L146.753,57.339 C146.753,57.339 146.808,59.375 146.809,60.233 C144.694,61.103 147.361,63.25 147.753,60.944 C148.088,60.961 151.07,60.783 151.07,60.783 L150.939,59.247 C150.939,59.247 152.347,59.199 152.4,59.199 C152.453,59.199 148.209,64.165 147.141,65.33 C144.819,61.346 139.985,59.833 139.756,59.728 C139.928,59.383 141.234,56.41 142.119,54.389 C142.59,53.314 142.942,52.507 142.942,52.507 Z M149.966,12.804 L156.825,13.803 C158.409,14.034 159.805,14.626 161.013,15.579 C162.22,16.532 163.111,17.719 163.685,19.141 C164.259,20.562 164.43,22.062 164.201,23.639 C163.971,25.216 163.378,26.604 162.422,27.803 C161.467,29.002 160.274,29.884 158.846,30.448 C157.418,31.013 155.911,31.18 154.326,30.949 L147.467,29.949 L149.966,12.804 Z M134.046,54.632 C133.058,55.209 131.995,55.67 130.874,55.998 C130.512,53.728 128.697,52.184 128.256,50.7 C128.486,50.662 128.714,50.615 128.938,50.559 C130.157,52.423 132.982,52.653 134.046,54.632 Z M134.008,46.915 C134.131,46.723 134.249,46.529 134.357,46.327 C136.399,46.329 138.495,45.262 140.803,45.262 C140.588,46.294 140.258,47.283 139.833,48.219 C137.351,46.805 135.27,47.364 134.008,46.915 Z M138.495,50.551 C137.847,51.467 137.094,52.302 136.252,53.041 C134.815,50.851 132.939,50.45 131.616,49.374 C131.742,49.288 132.072,49.032 132.194,48.941 C134.23,50.156 136.982,49.627 138.495,50.551 Z M129.454,125.909 C129.492,125.916 129.556,125.925 129.636,125.937 C129.639,125.929 129.644,125.915 129.647,125.909 C129.967,125.964 131.841,126.2 132.959,126.423 C132.591,127.844 131.557,131.924 131.191,135.162 C131.178,135.092 131.126,134.943 131.049,134.744 C131.031,134.884 131.013,135.025 130.997,135.162 C130.899,134.651 128.87,130.154 128.504,129.77 C128.602,129.338 129.298,126.186 129.454,125.909 Z M126.769,125.236 C127.144,125.031 129.632,118.658 129.981,117.843 C129.231,117.677 128.772,117.436 128.333,117.372 C127.985,117.868 124.517,123.399 123.438,124.22 C122.491,123.9 121.331,123.494 120.161,122.94 C120.9,122.722 131.396,109.144 130.919,98.259 C131.396,99.743 135.001,108.124 135.001,108.124 C135.001,108.124 129.813,124.299 129.619,125.796 C128.553,125.686 127.447,125.408 126.769,125.236 Z M120.827,131.102 C120.393,130.816 118.766,129.887 118.507,129.663 C118.778,129.338 119.088,128.727 119.544,128.237 C119.802,127.959 121.915,128.028 122.959,128.451 C122.356,128.978 121.272,130.536 120.827,131.102 Z M124.776,128.88 C125.194,128.48 127.676,128.765 128.036,129.065 C127.201,130.135 125.216,133.256 125.072,134.079 C124.215,133.546 123.106,132.674 122.722,132.355 C122.973,131.885 124.303,129.333 124.776,128.88 Z M136.852,118.78 C136.681,119.51 136.294,126.184 136.037,126.698 C135.426,126.651 133.82,126.547 132.959,126.43 C133.819,122.658 137.133,112.154 137.133,112.154 C137.133,112.154 141.998,121.472 143.364,126.522 C142.722,126.583 140.444,126.762 140.139,126.74 C140.097,126.366 138.854,119.199 138.947,118.78 C138.139,118.822 137.246,118.78 136.852,118.78 Z M143.364,126.612 C144.657,126.436 146.322,126.193 146.738,126.128 C147.126,126.896 147.705,130.188 147.769,130.611 C146.745,131.506 144.876,135.094 144.69,135.094 C145.015,132.769 143.784,127.392 143.364,126.612 Z M153.932,135.094 C153.546,135.094 151.665,135.135 151.105,135.119 C151.007,134.76 149.726,131.343 148.859,129.826 C149.284,129.793 151.897,129.557 152.372,130.721 C152.742,131.625 153.811,134.259 153.932,135.094 Z M159.34,135.078 C158.667,135.067 156.876,135.091 156.41,135.094 C156.436,134.838 154.716,130.899 154.575,130.619 C155.403,130.509 157.725,130.858 158.052,131.462 C158.379,132.067 159.22,134.479 159.34,135.078 Z M169.922,47.988 C171.462,48.703 172.768,49.212 172.43,51.362 C172.143,53.186 170.54,59.014 167.108,62.136 C167.482,62.62 167.81,62.569 168.33,63.202 C173.736,59.711 175.622,55.611 176.616,52.346 C177.581,53.257 178.892,54.483 178.203,56.023 C177.515,57.563 174.439,62.898 170.187,65.317 C170.577,65.866 170.783,66.139 171.096,66.676 C175.183,65.276 180.637,60.242 181.585,57.889 C182.081,58.754 183.46,60.139 182.265,61.734 C180.431,64.182 176.616,67.34 172.314,69.146 C172.447,69.521 172.747,70.463 172.86,70.882 C178.981,69.288 182.956,66.664 185.191,64.728 C185.898,66.442 186.067,67.43 184.923,68.366 C183.796,69.288 177.524,73.012 173.334,73.594 C173.418,74.199 173.414,74.851 173.435,75.32 C178.721,75.438 184.686,72.803 186.822,71.446 C187.101,72.067 187.341,74.446 186.194,74.977 C185.047,75.507 179.338,78.233 173.205,78.102 C173.175,78.269 172.875,79.614 172.799,79.899 C177.597,81.082 184.923,79.582 186.969,78.819 C186.878,80.372 186.924,81.654 184.923,82.225 C182.807,82.829 176.304,83.698 171.798,82.486 C171.607,82.869 171.21,83.565 170.933,84.032 C173.191,85.074 178.756,86.909 184.97,85.914 C184.524,87.025 184.065,88.776 182.277,88.913 C178.244,89.22 172.015,87.914 169.259,86.3 C168.892,86.7 168.44,87.209 168.099,87.486 C169.839,88.888 174.704,92.251 181.549,92.576 C181.075,93.562 179.83,95.375 177.863,94.954 C173.704,94.062 169.243,92.177 165.847,89.242 C165.055,89.702 164.78,89.897 164.303,90.138 C164.984,91.008 169.342,96.3 176.345,98.558 C174.53,99.828 173.123,100.272 171.3,99.373 C168.508,97.997 164.455,94.985 161.616,91.21 C160.714,91.463 160.403,91.527 159.952,91.629 C160.731,93.332 163.56,98.132 167.708,101.39 C165.001,102.039 163.759,101.523 162.785,100.504 C160.252,97.858 157.479,93.4 157.039,91.898 C156.188,91.879 155.728,91.922 155.037,91.843 C155.689,95.803 157.89,99.968 159.6,102.351 C157.958,102.685 156.477,102.674 156.22,102.306 C154.597,100.073 152.663,95.61 152.198,91.765 C151.236,91.799 150.554,92.018 150.352,92.096 C150.254,97.198 151.851,102.544 153.207,105.052 C152.263,105.782 151.833,106.414 151.243,107.23 C149.765,104.963 147.689,99.116 147.625,93.358 C141.227,99.396 150.455,117.207 156.918,122.962 C155.359,123.521 154.477,124.025 153.44,124.261 C152.361,123.741 148.593,117.908 148.243,117.505 C147.324,117.745 147.084,117.725 146.427,117.925 C146.784,118.804 149.503,124.461 150.282,125.16 C149.736,125.411 147.645,125.865 146.784,125.98 C140.386,106.718 125.987,92.498 137.292,79.017 C137.398,78.891 137.498,78.777 137.599,78.661 C137.534,78.646 137.471,78.631 137.414,78.616 C136.183,78.293 133.344,77.486 132.539,77.26 C133.298,76.959 136.517,70.535 136.14,68.186 C136.022,67.452 133.673,63.727 131.661,65.017 C131.54,65.094 132.204,61.85 134.117,61.692 C135.289,61.595 136.295,62.64 137.015,62.705 C137.658,62.762 137.469,62.444 137.508,62.052 C137.686,61.956 137.757,62.03 137.876,62.063 C147.508,64.751 145.989,72.811 146.901,75.632 C143.855,75.598 142.556,76.858 141.926,77.803 C141.976,78.152 141.97,78.426 141.97,78.426 C148.893,76.727 150.348,82.304 156.427,81.825 C163.783,81.246 165.227,73.82 161.044,70.481 C158.025,68.071 157.568,64.477 160.302,63.333 C167.284,60.411 169.694,54.146 169.922,47.988 Z M173.742,17.428 L176.864,18.369 L171.864,34.947 L168.743,34.005 L173.742,17.428 Z M185.431,21.42 L188.446,22.663 L181.841,38.67 L178.827,37.426 L185.431,21.42 Z M226.645,52.204 L228.977,50.14 L237.838,60.148 L235.506,62.212 L232.159,58.434 L221.519,67.854 L219.357,65.413 L229.999,55.992 L226.645,52.204 Z M245.621,71.384 L235.207,87.166 L233.938,85.211 C233.728,84.887 233.625,84.539 233.628,84.167 C233.632,83.795 233.747,83.445 233.975,83.115 L235.411,80.959 L231.153,74.395 L228.599,74.829 C228.2,74.895 227.831,74.855 227.49,74.706 C227.149,74.558 226.873,74.322 226.663,73.998 L225.395,72.043 L244.051,68.963 L245.621,71.384 Z M253.748,86.262 L244.057,90.348 C243.375,90.636 242.832,91.037 242.429,91.552 C242.025,92.067 241.791,92.655 241.725,93.316 C241.658,93.978 241.774,94.66 242.071,95.365 C242.368,96.07 242.776,96.629 243.296,97.043 C243.816,97.458 244.402,97.702 245.053,97.777 C245.705,97.851 246.372,97.745 247.054,97.457 L256.745,93.371 L258.012,96.376 L248.321,100.461 C247.052,100.996 245.811,101.196 244.597,101.062 C243.382,100.927 242.294,100.478 241.329,99.714 C240.365,98.95 239.611,97.923 239.067,96.632 C238.523,95.341 238.315,94.086 238.442,92.866 C238.57,91.645 239.009,90.554 239.761,89.591 C240.512,88.627 241.522,87.878 242.79,87.343 L252.482,83.258 L253.748,86.262 Z M262.246,111.939 C262.471,112.953 262.448,113.923 262.179,114.848 C261.91,115.773 261.424,116.565 260.721,117.224 C260.018,117.883 259.16,118.325 258.145,118.549 C257.312,118.734 256.511,118.699 255.742,118.445 C254.972,118.191 254.324,117.799 253.799,117.268 C253.273,116.737 252.94,116.174 252.8,115.578 L252.705,115.204 L252.681,115.209 C252.746,115.648 252.732,116.026 252.642,116.343 C252.551,116.66 252.382,116.949 252.135,117.21 L246.944,122.973 L246.361,120.345 C246.278,119.967 246.272,119.618 246.346,119.297 C246.419,118.976 246.617,118.651 246.94,118.324 L251.415,113.35 L250.927,111.145 L244.632,112.541 L243.927,109.357 L260.844,105.609 L262.246,111.939 Z M264.816,130.007 L247.558,131.426 L247.291,128.177 L264.548,126.757 L264.816,130.007 Z M138.789,0 C62.147,0 0.016,62.164 0.016,138.847 C0.016,215.53 62.147,277.694 138.789,277.694 C215.432,277.694 277.563,215.53 277.563,138.847 C277.563,62.164 215.432,0 138.789,0 L138.789,0 Z" id="Fill-40" fill="#D8223A"/>
        </g>
    </g>
</svg>